<?xml version="1.0" encoding="UTF-8"?>
<svg version="1.1" xmlns="http://www.w3.org/2000/svg" width="174" height="172">
<path d="M0 0 C1.47398003 -0.0099852 1.47398003 -0.0099852 2.97773743 -0.02017212 C5.05113871 -0.03026276 7.12457223 -0.03499025 9.19799805 -0.03466797 C12.33633339 -0.03902509 15.47324257 -0.07533941 18.61132812 -0.11328125 C28.89960872 -0.17235012 38.19786407 -0.18840243 47.67578125 4.3359375 C48.38871338 4.6546582 49.10164551 4.97337891 49.83618164 5.30175781 C51.72178173 6.18783845 53.5412831 7.1388323 55.36328125 8.1484375 C55.99919189 8.49680664 56.63510254 8.84517578 57.2902832 9.20410156 C76.86642395 20.16534404 89.20942834 36.817165 97.67578125 57.3359375 C98.02342529 58.17705078 98.37106934 59.01816406 98.72924805 59.88476562 C99.98776326 64.47346075 100.01968199 68.78899374 100.046875 73.52734375 C100.05590347 74.50904037 100.06493195 75.490737 100.07423401 76.50218201 C100.08870885 78.57735156 100.09761635 80.65256647 100.10131836 82.7277832 C100.11315227 85.86425319 100.16231312 88.99871387 100.21289062 92.13476562 C100.30397863 103.31281205 99.91346768 112.25438293 94.67578125 122.3359375 C94.3511792 123.05998779 94.02657715 123.78403809 93.69213867 124.5300293 C89.26738772 134.39392559 83.25658945 141.766598 75.67578125 149.3359375 C75.08152344 150.00109375 74.48726562 150.66625 73.875 151.3515625 C64.58152755 161.5905247 47.31760472 171.32374503 33.35882568 172.53738403 C30.68802068 172.63217381 28.02405013 172.66549589 25.3515625 172.671875 C23.87758247 172.6818602 23.87758247 172.6818602 22.37382507 172.69204712 C20.30042379 172.70213776 18.22699027 172.70686525 16.15356445 172.70654297 C13.01522911 172.71090009 9.87831993 172.74721441 6.74023438 172.78515625 C-3.54804622 172.84422512 -12.84630157 172.86027743 -22.32421875 168.3359375 C-23.03715088 168.0172168 -23.75008301 167.69849609 -24.48461914 167.37011719 C-26.37021923 166.48403655 -28.1897206 165.5330427 -30.01171875 164.5234375 C-30.64762939 164.17506836 -31.28354004 163.82669922 -31.9387207 163.46777344 C-51.51486145 152.50653096 -63.85786584 135.85471 -72.32421875 115.3359375 C-72.84568481 114.07426758 -72.84568481 114.07426758 -73.37768555 112.78710938 C-74.63620076 108.19841425 -74.66811949 103.88288126 -74.6953125 99.14453125 C-74.70434097 98.16283463 -74.71336945 97.181138 -74.72267151 96.16969299 C-74.73714635 94.09452344 -74.74605385 92.01930853 -74.74975586 89.9440918 C-74.76158977 86.80762181 -74.81075062 83.67316113 -74.86132812 80.53710938 C-74.95241613 69.35906295 -74.56190518 60.41749207 -69.32421875 50.3359375 C-68.9996167 49.61188721 -68.67501465 48.88783691 -68.34057617 48.1418457 C-63.91582522 38.27794941 -57.90502695 30.905277 -50.32421875 23.3359375 C-49.72996094 22.67078125 -49.13570312 22.005625 -48.5234375 21.3203125 C-36.65687822 8.24648541 -17.46051565 0.0416775 0 0 Z " fill="#F9F7F7" transform="translate(74.32421875,-0.3359375)"/>
<path d="M0 0 C3.30622042 2.01679445 6.65073956 3.91804417 10.0625 5.75 C15.25161762 8.55549855 20.32029564 11.53541135 25.37109375 14.58203125 C27.64965088 15.81103012 29.4734247 16.54007967 32 17 C32 17.66 32 18.32 32 19 C32.58136719 19.11601562 33.16273437 19.23203125 33.76171875 19.3515625 C36.14982511 20.04340483 37.75539506 20.99242438 39.8125 22.375 C42.38187521 24.03725753 44.66048783 25.28306621 47.5 26.5 C50.24641209 27.67703375 52.40231725 28.82976754 54.875 30.4375 C59.65473922 33.53746904 59.65473922 33.53746904 68 37 C68 65.38 68 93.76 68 123 C66.35 123.33 64.7 123.66 63 124 C63 124.66 63 125.32 63 126 C61.5437455 126.67119549 60.08492133 127.33681807 58.625 128 C57.40683594 128.556875 57.40683594 128.556875 56.1640625 129.125 C54 130 54 130 52 130 C52 130.66 52 131.32 52 132 C48.68399093 133.42114675 45.60908332 134.69237646 42 135 C40.0078125 133.62890625 40.0078125 133.62890625 38.125 131.5625 C37.09439453 130.45261719 37.09439453 130.45261719 36.04296875 129.3203125 C35.36878906 128.55460938 34.69460937 127.78890625 34 127 C33.09701172 125.97519531 33.09701172 125.97519531 32.17578125 124.9296875 C31.01723541 123.60191587 29.86357137 122.26986873 28.71484375 120.93359375 C27.03995701 119.04505403 25.30052413 117.26844352 23.5 115.5 C21.06610268 113.10946833 18.78644441 110.64953738 16.5625 108.0625 C13.52493147 104.53565869 10.29516517 101.27266231 6.9765625 98.01171875 C5.01358234 96.01382392 3.19079329 93.94425732 1.375 91.8125 C-1.50183878 88.4594948 -4.51990191 85.71617412 -8 83 C-6.62410145 75.2261732 1.16197513 69.89333016 6.81640625 64.9921875 C9.48710283 62.55559492 11.77569034 59.91294279 14.09765625 57.1484375 C17.18355497 53.66333628 20.58540546 50.49904134 23.9609375 47.296875 C26.01624279 44.98170353 26.4131514 43.92424428 27 41 C22.89555833 41.13867261 18.7915296 41.28716103 14.6875 41.4375 C13.52025391 41.47681641 12.35300781 41.51613281 11.15039062 41.55664062 C10.03212891 41.59853516 8.91386719 41.64042969 7.76171875 41.68359375 C6.2142395 41.73858032 6.2142395 41.73858032 4.63549805 41.79467773 C1.89251742 41.90161242 1.89251742 41.90161242 -1 43 C-1.35412344 44.32796291 -1.68521554 45.66216607 -2 47 C-3.4375 48.75 -3.4375 48.75 -5 50 C-5.66 50 -6.32 50 -7 50 C-7.226875 50.5465625 -7.45375 51.093125 -7.6875 51.65625 C-9.99130568 55.77018872 -13.46513504 58.93403824 -16.6875 62.34375 C-18.6173236 64.56043927 -19.88553965 66.31516371 -21 69 C-21.66 69 -22.32 69 -23 69 C-23.1856453 60.49851852 -23.32764509 51.99788826 -23.41449738 43.49487877 C-23.45619072 39.54614887 -23.51270219 35.59880882 -23.60351562 31.65087891 C-23.6906654 27.83820657 -23.73831818 24.02686761 -23.75901794 20.21327591 C-23.77376124 18.76107413 -23.8025551 17.30894266 -23.84584045 15.85731125 C-24.17044023 4.51679584 -24.17044023 4.51679584 -21.2800293 0.77105713 C-13.83516084 -5.01267452 -7.71718043 -4.89382174 0 0 Z " fill="#595A5C" transform="translate(94,6)"/>
<path d="M0 0 C0 33.99 0 67.98 0 103 C6.93 103 13.86 103 21 103 C21 93.43 21 83.86 21 74 C25.74135533 78.06401885 30.07200753 81.99147473 34.25 86.5625 C35.0234375 87.38911133 35.0234375 87.38911133 35.8125 88.23242188 C38.66129087 91.32717793 40.84942156 94.37051376 43 98 C44.70810466 99.7791363 44.70810466 99.7791363 46.5625 101.25 C47.46162109 102.00023438 47.46162109 102.00023438 48.37890625 102.765625 C49.99276486 104.07390254 49.99276486 104.07390254 52 105 C52.433125 105.7425 52.86625 106.485 53.3125 107.25 C55.22496962 110.36661717 57.35344489 112.47106956 60 115 C61.40018633 116.37056701 62.79575532 117.7458617 64.1875 119.125 C64.86167969 119.78757812 65.53585938 120.45015625 66.23046875 121.1328125 C68.76075889 123.80274337 70 125.24688499 70 129 C66.04 129.99 66.04 129.99 62 131 C62 131.66 62 132.32 62 133 C60.58521865 133.64995297 59.16808513 134.29478722 57.75 134.9375 C56.96109375 135.29714844 56.1721875 135.65679687 55.359375 136.02734375 C53.24176302 136.90033279 51.23330638 137.51338508 49 138 C49 138.66 49 139.32 49 140 C46.99278019 141.21036864 44.9684867 142.39245016 42.9375 143.5625 C41.81214844 144.22378906 40.68679687 144.88507813 39.52734375 145.56640625 C35.3451404 147.26615002 33.32519896 147.17285143 29 146 C26.12109375 144.4765625 26.12109375 144.4765625 23.4375 142.625 C20.47575083 140.63424953 17.69826815 138.84913408 14.5 137.25 C12 136 12 136 10.578125 134.546875 C8.88693235 132.88917131 7.37786715 132.02137623 5.25 131 C4.61578125 130.690625 3.9815625 130.38125 3.328125 130.0625 C1.45464259 129.20748789 -0.44148584 128.40218753 -2.34375 127.61328125 C-5.97651017 126.01036464 -9.32285432 124.18930053 -12.75 122.1875 C-13.96951487 121.47954254 -15.18957444 120.77252261 -16.41015625 120.06640625 C-17.01102051 119.71852051 -17.61188477 119.37063477 -18.23095703 119.01220703 C-21.71581362 117.01824962 -25.25559026 115.12518544 -28.79296875 113.2265625 C-31 112 -31 112 -34 110 C-34.96421875 109.96261719 -35.9284375 109.92523438 -36.921875 109.88671875 C-40 109 -40 109 -41.20117188 107.42822266 C-42.33602895 105.26002095 -43.31078384 103.07225407 -44.25 100.8125 C-44.58773437 100.05646484 -44.92546875 99.30042969 -45.2734375 98.52148438 C-46.22572701 96.36008712 -47.14339676 94.20114199 -48 92 C-48.53717651 90.69820801 -48.53717651 90.69820801 -49.08520508 89.37011719 C-50.32094857 84.81762101 -50.34413056 80.50689791 -50.37109375 75.80859375 C-50.38012222 74.82689713 -50.3891507 73.8452005 -50.39845276 72.83375549 C-50.4129276 70.75858594 -50.4218351 68.68337103 -50.42553711 66.6081543 C-50.43737102 63.47168431 -50.48653187 60.33722363 -50.53710938 57.20117188 C-50.62742405 45.96527608 -50.12723655 37.17154244 -45 27 C-44.24338952 25.10679515 -43.4924358 23.21130834 -42.75 21.3125 C-40.69229947 17.30030649 -40.69229947 17.30030649 -37.96484375 16.1171875 C-35.6875 15.6875 -35.6875 15.6875 -33.32421875 15.4140625 C-29.99347643 14.82068656 -27.80918332 13.11769419 -25.05859375 11.23046875 C-22.12984016 9.47988548 -19.06844783 8.64072207 -15.78515625 7.7734375 C-15.19605469 7.51820312 -14.60695312 7.26296875 -14 7 C-13.67 6.01 -13.34 5.02 -13 4 C-9.5625 2.375 -9.5625 2.375 -6 1 C-4 0 -4 0 0 0 Z " fill="#B42D33" transform="translate(50,23)"/>
<path d="M0 0 C4.08308236 -0.11800816 8.16571576 -0.18784785 12.25 -0.25 C13.38953125 -0.28351562 14.5290625 -0.31703125 15.703125 -0.3515625 C26.77506984 -0.47738006 36.06136108 2.47846609 45.6875 7.8125 C46.32341064 8.16086914 46.95932129 8.50923828 47.61450195 8.86816406 C55.41410967 13.23538805 61.80885153 18.66005743 68.1875 24.875 C68.67500732 25.34454102 69.16251465 25.81408203 69.66479492 26.29785156 C71.17676457 27.81366455 72.57916153 29.3984921 74 31 C74.52214584 31.51607315 75.04429169 32.0321463 75.58226013 32.56385803 C82.33871882 40.51516927 80.63938376 50.78289768 80.3671875 60.56640625 C80.33352034 62.57132228 80.30256604 64.57628553 80.27420044 66.58128357 C80.19264455 71.83449469 80.07445828 77.08625489 79.94842529 82.33856201 C79.82614212 87.70773863 79.73879491 93.07747365 79.6484375 98.44726562 C79.46632844 108.96567825 79.24548581 119.48288891 79 130 C77.02 130.66 75.04 131.32 73 132 C73 131.34 73 130.68 73 130 C74.65 129.67 76.3 129.34 78 129 C78 100.62 78 72.24 78 43 C76.35 42.67 74.7 42.34 73 42 C70.66891436 40.78293378 68.4358224 39.53941849 66.1875 38.1875 C61.81780497 35.62192714 57.44924055 33.14843957 52.88671875 30.94140625 C49.18643374 29.09509427 45.59994425 27.03330184 42 25 C42 24.34 42 23.68 42 23 C41.28070313 22.89042969 40.56140625 22.78085937 39.8203125 22.66796875 C36.78248844 21.9484841 34.58421887 20.8531155 31.875 19.3125 C30.92109375 18.77625 29.9671875 18.24 28.984375 17.6875 C27.99953125 17.130625 27.0146875 16.57375 26 16 C24.04326779 14.93455419 22.08498447 13.87195107 20.125 12.8125 C15.60947412 10.36602851 11.21804308 7.92677191 7.125 4.8125 C3.45616279 2.68457442 1.17189473 2.66624842 -3 3 C-2.01 2.67 -1.02 2.34 0 2 C0 1.34 0 0.68 0 0 Z " fill="#F1F1F1" transform="translate(84,0)"/>
<path d="M0 0 C2.38538338 2.96260443 4.01262451 5.90599968 5.5625 9.375 C6.18318359 10.74785156 6.18318359 10.74785156 6.81640625 12.1484375 C9.55232154 18.73991659 10.33044392 24.10822179 10.37109375 31.19140625 C10.38012222 32.17310287 10.3891507 33.1547995 10.39845276 34.16624451 C10.4129276 36.24141406 10.4218351 38.31662897 10.42553711 40.3918457 C10.43737102 43.52831569 10.48653187 46.66277637 10.53710938 49.79882812 C10.62672734 60.94192019 10.26220125 69.95433763 5 80 C4.5992627 80.83837402 4.19852539 81.67674805 3.78564453 82.54052734 C2.89656691 84.37995739 1.95590754 86.19439687 1 88 C0.67 88 0.34 88 0 88 C-0.74284805 82.69770836 -1.14544827 77.53682567 -1.12939453 72.17871094 C-1.13114685 71.44269653 -1.13289917 70.70668213 -1.13470459 69.94836426 C-1.13906466 67.54367637 -1.13620714 65.13906348 -1.1328125 62.734375 C-1.13348693 61.05145249 -1.13445812 59.36853008 -1.13571167 57.68560791 C-1.13718047 54.1722317 -1.13505938 50.65888104 -1.13037109 47.14550781 C-1.12465666 42.6441636 -1.1279688 38.14287879 -1.13394356 33.64153671 C-1.13755628 30.17229769 -1.13640761 26.70307276 -1.13381577 23.23383331 C-1.13314938 21.57365156 -1.13396485 19.91346852 -1.13629532 18.25328827 C-1.13883541 15.93672789 -1.13496286 13.62026412 -1.12939453 11.30371094 C-1.12859894 9.98659119 -1.12780334 8.66947144 -1.12698364 7.31243896 C-1.02501773 4.6526015 -0.8018169 2.5159312 0 0 Z " fill="#FEFEFE" transform="translate(164,42)"/>
<path d="M0 0 C0.99 0.33 1.98 0.66 3 1 C3.06946198 10.33578439 3.12279178 19.67148004 3.15543652 29.00746632 C3.17110311 33.34239125 3.19235934 37.6771396 3.22631836 42.01196289 C3.25887664 46.19408088 3.27684553 50.37602885 3.28463173 54.55826378 C3.29018162 56.15510422 3.30101906 57.75193519 3.31719017 59.34870338 C3.33891808 61.58269094 3.34196896 63.81597288 3.34057617 66.05004883 C3.34723801 67.32245926 3.35389984 68.59486969 3.36076355 69.90583801 C3 73 3 73 1.47871399 74.93437195 C0.74675056 75.46185783 0.74675056 75.46185783 0 76 C-0.81381795 74.06305322 -1.62600916 72.12542289 -2.4375 70.1875 C-2.88996094 69.10855469 -3.34242188 68.02960938 -3.80859375 66.91796875 C-5.2779345 63.31928829 -6.1284795 60.50499896 -6.19287109 56.64306641 C-6.20893402 55.7642984 -6.22499695 54.8855304 -6.24154663 53.98013306 C-6.2863993 49.93158953 -6.32713227 45.88320768 -6.35009766 41.83447266 C-6.36656118 39.71261555 -6.39372196 37.59081165 -6.43212891 35.46923828 C-6.8373633 12.94172988 -6.8373633 12.94172988 -1 2 C-0.67 1.34 -0.34 0.68 0 0 Z " fill="#F6F3F3" transform="translate(6,48)"/>
<path d="M0 0 C0 0.66 0 1.32 0 2 C-0.598125 2.2475 -1.19625 2.495 -1.8125 2.75 C-4.40619455 4.23211117 -5.44610759 5.45096792 -7 8 C-7.46285165 10.71291645 -7.46285165 10.71291645 -7.41650391 13.71484375 C-7.43307037 14.86283447 -7.44963684 16.0108252 -7.46670532 17.19360352 C-7.46995819 18.42908936 -7.47321106 19.6645752 -7.4765625 20.9375 C-7.49214203 22.20972412 -7.50772156 23.48194824 -7.52377319 24.79272461 C-7.56327236 28.17126292 -7.59060333 31.54942669 -7.61126709 34.92810059 C-7.64281626 39.68795964 -7.69441232 44.44761668 -7.74765015 49.20727539 C-7.77485914 51.74025816 -7.79621801 54.27331181 -7.81118774 56.80639648 C-7.82144989 57.95438721 -7.83171204 59.10237793 -7.84228516 60.28515625 C-7.84878082 61.29457275 -7.85527649 62.30398926 -7.86196899 63.34399414 C-7.98535629 65.7182244 -8.32274902 67.73004329 -9 70 C-8.34 70.33 -7.68 70.66 -7 71 C-8.485 71.495 -8.485 71.495 -10 72 C-10.1856453 63.49851852 -10.32764509 54.99788826 -10.41449738 46.49487877 C-10.45619072 42.54614887 -10.51270219 38.59880882 -10.60351562 34.65087891 C-10.6906654 30.83820657 -10.73831818 27.02686761 -10.75901794 23.21327591 C-10.77376124 21.76107413 -10.8025551 20.30894266 -10.84584045 18.85731125 C-11.17087974 7.50144057 -11.17087974 7.50144057 -8.23608398 3.73809814 C-5.59425355 1.68684984 -3.41672627 0 0 0 Z " fill="#747577" transform="translate(81,3)"/>
<path d="M0 0 C1.67739258 0.00966797 1.67739258 0.00966797 3.38867188 0.01953125 C5.13954102 0.04466797 5.13954102 0.04466797 6.92578125 0.0703125 C8.69405273 0.08384766 8.69405273 0.08384766 10.49804688 0.09765625 C13.41166151 0.12124827 16.32487017 0.1541671 19.23828125 0.1953125 C18.49685884 4.88643214 17.15418811 6.72537222 13.67578125 10.0078125 C12.84949219 10.79800781 12.02320312 11.58820312 11.171875 12.40234375 C10.53378906 12.99402344 9.89570312 13.58570313 9.23828125 14.1953125 C9.23828125 11.1953125 9.23828125 11.1953125 10.734375 9.44140625 C11.69537109 8.54615234 11.69537109 8.54615234 12.67578125 7.6328125 C15.32789755 5.19241821 15.32789755 5.19241821 17.23828125 2.1953125 C4.73025895 1.47037558 4.73025895 1.47037558 -6.83203125 5.04296875 C-8.90464907 7.17908895 -8.90464907 7.17908895 -10.45703125 9.48046875 C-10.88757813 10.04636719 -11.318125 10.61226562 -11.76171875 11.1953125 C-12.75171875 11.1953125 -13.74171875 11.1953125 -14.76171875 11.1953125 C-14.76171875 10.5353125 -14.76171875 9.8753125 -14.76171875 9.1953125 C-13.95734375 8.5559375 -13.15296875 7.9165625 -12.32421875 7.2578125 C-9.52451143 5.38495318 -9.52451143 5.38495318 -8.76171875 2.1953125 C-5.31537993 -0.10224672 -4.05103484 -0.04112726 0 0 Z " fill="#C2C2C2" transform="translate(101.76171875,46.8046875)"/>
<path d="M0 0 C0.99 0.33 1.98 0.66 3 1 C3 26.08 3 51.16 3 77 C1.515 77.495 1.515 77.495 0 78 C0.16233124 77.4850296 0.32466248 76.9700592 0.49191284 76.43948364 C1.15706164 73.24589849 1.1273408 70.23153944 1.12939453 66.96826172 C1.13114685 66.26863312 1.13289917 65.56900452 1.13470459 64.84817505 C1.13909619 62.5419871 1.13619524 60.23587619 1.1328125 57.9296875 C1.13348616 56.32593776 1.13445671 54.72218811 1.13571167 53.11843872 C1.13718486 49.76107814 1.13504566 46.4037442 1.13037109 43.04638672 C1.12466482 38.73754198 1.12796087 34.4287594 1.13394356 30.11991692 C1.13755153 26.81030811 1.13640965 23.50071413 1.13381577 20.19110489 C1.13314763 18.60183836 1.13397099 17.01257049 1.13629532 15.42330551 C1.13882669 13.20648361 1.13497481 10.98976351 1.12939453 8.77294922 C1.12859894 7.510383 1.12780334 6.24781677 1.12698364 4.94699097 C1.20381603 2.06738661 1.20381603 2.06738661 0 0 Z " fill="#AD6163" transform="translate(7,47)"/>
<path d="M0 0 C4.08378283 0.74250597 8.01939223 1.82923301 12 3 C11.67 3.66 11.34 4.32 11 5 C4.6 4.50769231 4.6 4.50769231 1.5625 1.9375 C1.046875 1.298125 0.53125 0.65875 0 0 Z " fill="#B57375" transform="translate(75,165)"/>
<path d="M0 0 C0 0.66 0 1.32 0 2 C-1.4562545 2.67119549 -2.91507867 3.33681807 -4.375 4 C-5.59316406 4.556875 -5.59316406 4.556875 -6.8359375 5.125 C-9 6 -9 6 -11 6 C-11 5.34 -11 4.68 -11 4 C-7.46388043 1.54436141 -4.33090187 0 0 0 Z " fill="#BFC0C0" transform="translate(157,132)"/>
<path d="M0 0 C2.5 2.3125 2.5 2.3125 5 5 C5 5.99 5 6.98 5 8 C3.68 8.33 2.36 8.66 1 9 C1.020625 8.071875 1.04125 7.14375 1.0625 6.1875 C1.15769604 2.97713989 1.15769604 2.97713989 0 0 Z " fill="#AF7072" transform="translate(115,144)"/>
<path d="M0 0 C0.556875 0.226875 1.11375 0.45375 1.6875 0.6875 C-5.0625 4.6875 -5.0625 4.6875 -7.3125 4.6875 C-7.3125 4.0275 -7.3125 3.3675 -7.3125 2.6875 C-3.15982824 -0.42700382 -3.15982824 -0.42700382 0 0 Z " fill="#CCA1A3" transform="translate(106.3125,158.3125)"/>
<path d="M0 0 C-1.32 0.33 -2.64 0.66 -4 1 C-4 1.66 -4 2.32 -4 3 C-5.65 3 -7.3 3 -9 3 C-8.67 2.01 -8.34 1.02 -8 0 C-2.25 -1.125 -2.25 -1.125 0 0 Z " fill="#B07274" transform="translate(18,40)"/>
</svg>
