<?xml version="1.0" standalone="no"?>
<!DOCTYPE svg PUBLIC "-//W3C//DTD SVG 20010904//EN"
 "http://www.w3.org/TR/2001/REC-SVG-20010904/DTD/svg10.dtd">
<svg version="1.0" xmlns="http://www.w3.org/2000/svg"
 width="163.000000pt" height="183.000000pt" viewBox="0 0 163.000000 183.000000"
 preserveAspectRatio="xMidYMid meet">

<g transform="translate(0.000000,183.000000) scale(0.100000,-0.100000)"
fill="#000000" stroke="none">
<path d="M764 1762 c-16 -9 -51 -32 -77 -50 l-47 -33 0 -332 1 -332 70 75 c39
41 88 98 109 127 82 108 73 103 199 103 79 0 111 -3 111 -12 0 -6 -37 -50 -83
-98 -45 -47 -119 -127 -165 -179 l-83 -93 23 -27 c13 -14 80 -89 148 -166 68
-77 145 -162 171 -190 25 -27 68 -74 94 -102 26 -29 52 -53 57 -53 5 0 60 28
123 63 l115 62 -3 419 -2 420 -57 30 c-32 17 -97 54 -145 83 -49 28 -104 60
-123 71 -19 10 -90 51 -157 91 -67 39 -124 71 -126 71 -3 0 -28 16 -57 35 -29
19 -55 35 -59 35 -3 -1 -20 -9 -37 -18z"/>
<path d="M1558 923 l-3 -743 -38 -37 -37 -38 -658 -5 -657 -5 35 -22 c19 -12
52 -25 75 -28 22 -3 308 -5 635 -3 578 3 596 4 630 23 19 12 43 36 55 55 20
34 20 52 23 728 2 457 -1 706 -8 732 -6 21 -19 49 -30 62 -19 23 -19 17 -22
-719z"/>
<path d="M420 1556 c-19 -13 -64 -39 -100 -59 -36 -19 -105 -58 -155 -85 l-90
-50 0 -422 0 -422 95 -53 c52 -29 211 -118 352 -199 142 -80 262 -146 267
-146 9 0 329 174 339 185 7 6 -18 36 -258 304 l-225 253 -3 -151 -3 -151 -84
0 -85 0 0 510 c0 281 -3 510 -7 509 -5 0 -24 -10 -43 -23z"/>
</g>
</svg>
