<?xml version="1.0" encoding="UTF-8"?>
<svg version="1.1" xmlns="http://www.w3.org/2000/svg" width="165" height="184">
<path d="M0 0 C1.67592728 -0.01485695 1.67592728 -0.01485695 3.38571167 -0.03001404 C4.60195724 -0.02551239 5.81820282 -0.02101074 7.07130432 -0.01637268 C8.35962158 -0.02323593 9.64793884 -0.03009918 10.97529602 -0.03717041 C14.50222218 -0.05509324 18.02889942 -0.05393515 21.55585742 -0.04822803 C24.50316023 -0.04513479 27.45041532 -0.05123013 30.39771134 -0.05726677 C37.35226328 -0.07130758 44.30669237 -0.06975453 51.26124573 -0.05836487 C58.42943366 -0.04688455 65.59724742 -0.06095859 72.76538604 -0.08776134 C78.92606596 -0.10993226 85.08662854 -0.1165526 91.24734551 -0.11068493 C94.92408685 -0.10731737 98.60058837 -0.1097167 102.27729607 -0.12693596 C106.37814329 -0.14530386 110.47826447 -0.13120385 114.57911682 -0.11402893 C115.79333817 -0.1236969 117.00755951 -0.13336487 118.25857544 -0.14332581 C128.74532196 -0.05125575 128.74532196 -0.05125575 133.38990784 4.38768005 C136.17396469 8.24540301 136.76708467 10.91542773 136.77758789 15.64315796 C136.78749252 16.90348343 136.79739716 18.1638089 136.80760193 19.46232605 C136.80336417 20.85142615 136.79880634 22.2405253 136.79396057 23.62962341 C136.79966535 25.09844482 136.80663003 26.56726179 136.8147583 28.03607178 C136.83269325 32.01958659 136.83152072 36.00288116 136.82581592 39.98642421 C136.82272449 43.31398019 136.82881601 46.64149384 136.83485466 49.96904379 C136.84889943 57.82013222 136.84733907 65.67111184 136.83595276 73.52220154 C136.82447172 81.61741006 136.83854693 89.71228728 136.86534923 97.80745214 C136.88751214 104.76217764 136.89414229 111.71679919 136.88827282 118.67155749 C136.88490341 122.82336489 136.88731709 126.97495994 136.90452385 131.12673759 C136.92000042 135.0314231 136.91602998 138.93561817 136.8972187 142.84028435 C136.89353472 144.27133084 136.89663582 145.70241372 136.90710449 147.13342667 C136.98915303 159.27849192 136.98915303 159.27849192 134.67105103 163.09838867 C130.66670823 167.11703489 127.46833567 168.76108635 121.77981567 168.77536011 C120.66253082 168.78526474 119.54524597 168.79516937 118.394104 168.80537415 C117.17785843 168.8008725 115.96161285 168.79637085 114.70851135 168.79173279 C113.42019409 168.79859604 112.13187683 168.80545929 110.80451965 168.81253052 C107.2775935 168.83045335 103.75091625 168.82929525 100.22395825 168.82358813 C97.27665544 168.8204949 94.32940035 168.82659024 91.38210434 168.83262688 C84.4275524 168.84666769 77.47312331 168.84511464 70.51856995 168.83372498 C63.35038201 168.82224466 56.18256826 168.8363187 49.01442963 168.86312145 C42.85374971 168.88529237 36.69318714 168.8919127 30.53247017 168.88604504 C26.85572882 168.88267748 23.17922731 168.88507681 19.50251961 168.90229607 C15.40167238 168.92066397 11.3015512 168.90656396 7.20069885 168.88938904 C5.98647751 168.89905701 4.77225616 168.90872498 3.52124023 168.91868591 C-6.96550629 168.82661586 -6.96550629 168.82661586 -11.61009216 164.38768005 C-14.39414902 160.5299571 -14.987269 157.85993237 -14.99777222 153.13220215 C-15.00767685 151.87187668 -15.01758148 150.61155121 -15.02778625 149.31303406 C-15.02354849 147.92393396 -15.01899066 146.53483481 -15.0141449 145.14573669 C-15.01984968 143.67691529 -15.02681436 142.20809832 -15.03494263 140.73928833 C-15.05287757 136.75577352 -15.05170505 132.77247895 -15.04600024 128.7889359 C-15.04290881 125.46137992 -15.04900034 122.13386627 -15.05503899 118.80631632 C-15.06908375 110.95522788 -15.0675234 103.10424827 -15.05613708 95.25315857 C-15.04465605 87.15795005 -15.05873126 79.06307283 -15.08553356 70.96790797 C-15.10769646 64.01318247 -15.11432661 57.05856092 -15.10845715 50.10380262 C-15.10508774 45.95199522 -15.10750142 41.80040017 -15.12470818 37.64862251 C-15.14018475 33.743937 -15.1362143 29.83974194 -15.11740303 25.93507576 C-15.11371905 24.50402927 -15.11682015 23.07294638 -15.12728882 21.64193344 C-15.20933736 9.49686819 -15.20933736 9.49686819 -12.89123535 5.67697144 C-8.88689256 1.65832522 -5.68852 0.01427376 0 0 Z " fill="#FEFEFE" transform="translate(18.610092163085938,4.6123199462890625)"/>
<path d="M0 0 C3.30573223 1.32935139 6.2830886 3.16515285 9.3203125 5.0078125 C10.84038278 5.91664206 12.36127209 6.8241026 13.8828125 7.73046875 C14.72199219 8.23078613 15.56117187 8.73110352 16.42578125 9.24658203 C21.69634813 12.36041659 27.01213211 15.39620824 32.3203125 18.4453125 C39.46134034 22.55246654 46.58804918 26.67482267 53.6328125 30.9453125 C58.75222062 34.04745099 63.93197869 36.98192729 69.21875 39.7890625 C71.1953125 40.8828125 71.1953125 40.8828125 72.1953125 41.8828125 C72.29040809 44.49969691 72.3208725 47.0901015 72.30883789 49.70727539 C72.30898392 50.52672134 72.30912994 51.3461673 72.3092804 52.19044495 C72.30858102 54.91214603 72.30078751 57.63377955 72.29296875 60.35546875 C72.29110466 62.23733991 72.28968071 64.11921156 72.28868103 66.00108337 C72.28485517 70.96429779 72.27502431 75.92748314 72.26397705 80.89068604 C72.2537644 85.95120856 72.24918372 91.01173577 72.24414062 96.07226562 C72.2334021 106.00912738 72.21632486 115.94596753 72.1953125 125.8828125 C68.62297934 127.92357247 65.03588171 129.93683785 61.4453125 131.9453125 C60.42953125 132.52603516 59.41375 133.10675781 58.3671875 133.70507812 C57.3875 134.24970703 56.4078125 134.79433594 55.3984375 135.35546875 C54.04733887 136.11742554 54.04733887 136.11742554 52.66894531 136.89477539 C49.91633756 137.99424278 48.89138959 138.00725678 46.1953125 136.8828125 C44.51953125 135.53515625 44.51953125 135.53515625 42.8828125 133.8203125 C42.28210938 133.19382813 41.68140625 132.56734375 41.0625 131.921875 C38.58354498 129.21473165 36.16487406 126.46040445 33.7734375 123.67578125 C32.49879492 122.22761059 31.13958106 120.85415109 29.7578125 119.5078125 C28.1953125 117.8828125 28.1953125 117.8828125 28.1953125 115.8828125 C27.5353125 115.8828125 26.8753125 115.8828125 26.1953125 115.8828125 C24.78515625 114.484375 24.78515625 114.484375 23.1328125 112.5078125 C20.36713841 109.25340183 17.56223058 106.04867417 14.6953125 102.8828125 C13.94378906 102.0475 13.19226563 101.2121875 12.41796875 100.3515625 C10.9709038 98.7442777 9.52054557 97.13994982 8.06640625 95.5390625 C7.42832031 94.8275 6.79023437 94.1159375 6.1328125 93.3828125 C5.56433594 92.75375 4.99585937 92.1246875 4.41015625 91.4765625 C3.1953125 89.8828125 3.1953125 89.8828125 3.1953125 87.8828125 C2.5353125 87.8828125 1.8753125 87.8828125 1.1953125 87.8828125 C0.5353125 86.5628125 -0.1246875 85.2428125 -0.8046875 83.8828125 C3.74316304 78.1799523 8.27921201 72.62270793 13.5234375 67.546875 C15.91249479 65.16898152 18.09055949 62.6274802 20.2890625 60.07421875 C23.25998214 56.65887876 26.32241433 53.32669761 29.375 49.984375 C31.23207917 48.01557829 31.23207917 48.01557829 32.1953125 45.8828125 C28.40275578 45.96340099 24.61184158 46.07626567 20.8203125 46.1953125 C19.74007812 46.21787109 18.65984375 46.24042969 17.546875 46.26367188 C16.515625 46.29912109 15.484375 46.33457031 14.421875 46.37109375 C12.99222412 46.41036987 12.99222412 46.41036987 11.53369141 46.45043945 C10.37619385 46.66446411 10.37619385 46.66446411 9.1953125 46.8828125 C8.5353125 47.8728125 7.8753125 48.8628125 7.1953125 49.8828125 C6.5353125 49.8828125 5.8753125 49.8828125 5.1953125 49.8828125 C4.91300781 50.47320312 4.63070312 51.06359375 4.33984375 51.671875 C0.85659339 58.40061119 -4.51067357 63.86424757 -9.6171875 69.3828125 C-10.2047583 70.01880371 -10.7923291 70.65479492 -11.39770508 71.31005859 C-12.84415541 72.85571937 -14.32166394 74.37220767 -15.8046875 75.8828125 C-16.1346875 75.8828125 -16.4646875 75.8828125 -16.8046875 75.8828125 C-17.06010407 67.26841342 -17.25526485 58.65560689 -17.37462139 50.03835201 C-17.43192399 46.0363291 -17.50955618 42.03690417 -17.63452148 38.03637695 C-17.75448062 34.17171029 -17.81989439 30.3095328 -17.84833717 26.44314766 C-17.8685895 24.97204948 -17.90814711 23.50108078 -17.96771812 22.03104973 C-18.1447411 17.47961164 -18.13007031 13.29160078 -16.8046875 8.8828125 C-13.53981691 5.54547755 -10.06173927 3.71466246 -5.8046875 1.8828125 C-4.6947065 1.3016996 -4.6947065 1.3016996 -3.56230164 0.70884705 C-1.8046875 -0.1171875 -1.8046875 -0.1171875 0 0 Z " fill="#58595B" transform="translate(79.8046875,5.1171875)"/>
<path d="M0 0 C0 33.66 0 67.32 0 102 C5.61 102 11.22 102 17 102 C17 92.1 17 82.2 17 72 C21.68048673 76.01184577 25.91042751 79.84600159 30 84.375 C30.52271484 84.94806885 31.04542969 85.5211377 31.58398438 86.11157227 C36.38388303 91.38773415 41.08085305 96.74350211 45.703125 102.17578125 C46.1978833 102.75610107 46.6926416 103.3364209 47.20239258 103.93432617 C48.23244052 105.14279226 49.26093047 106.3525881 50.2878418 107.5637207 C52.87243156 110.59310222 55.49612162 113.55640662 58.25390625 116.4296875 C58.76791992 116.96883789 59.28193359 117.50798828 59.81152344 118.06347656 C61.23511937 119.54449796 62.67379712 121.01097893 64.11328125 122.4765625 C66 125 66 125 65.93676758 126.96435547 C64.57864693 129.91562208 62.75541206 130.60432742 59.8984375 132.09375 C58.85042969 132.64933594 57.80242187 133.20492187 56.72265625 133.77734375 C55.61792969 134.34582031 54.51320313 134.91429687 53.375 135.5 C51.21587093 136.63489382 49.05700999 137.77029793 46.8984375 138.90625 C45.87202148 139.43605469 44.84560547 139.96585938 43.78808594 140.51171875 C41.47910613 141.74425298 39.30250163 143.05879229 37.1015625 144.46875 C33.33048401 146.3305419 32.01958012 145.98855907 28 145 C25.24609375 143.72827148 25.24609375 143.72827148 22.4375 142.12109375 C21.39207031 141.52876953 20.34664062 140.93644531 19.26953125 140.32617188 C18.19058594 139.70291016 17.11164062 139.07964844 16 138.4375 C14.95199219 137.84130859 13.90398438 137.24511719 12.82421875 136.63085938 C9.54438209 134.76267403 6.27198965 132.88188966 3 131 C0.70488056 129.68669716 -1.59059708 128.37404711 -3.88671875 127.0625 C-4.46524094 126.73188568 -5.04376312 126.40127136 -5.63981628 126.06063843 C-9.28721846 123.97666946 -12.93668194 121.896349 -16.58743286 119.81825256 C-19.04679835 118.4181569 -21.50549385 117.0168872 -23.96411133 115.61547852 C-25.21933286 114.90041175 -26.47487816 114.1859131 -27.73071289 113.47192383 C-29.57784082 112.42157768 -31.4237993 111.36920305 -33.26953125 110.31640625 C-34.34823486 109.70224854 -35.42693848 109.08809082 -36.53833008 108.45532227 C-39 107 -39 107 -40 106 C-40.17483057 103.4322484 -40.28467485 100.8897391 -40.3515625 98.31835938 C-40.37580292 97.51337006 -40.40004333 96.70838074 -40.42501831 95.8789978 C-40.6368088 88.429867 -40.76128948 80.97887247 -40.85931396 73.52745819 C-40.92630464 68.52040261 -41.02182883 63.51757003 -41.18652344 58.51269531 C-41.34504984 53.67407117 -41.42914615 48.83929874 -41.46209717 43.99824524 C-41.48719953 42.15743584 -41.53833737 40.3167826 -41.61651611 38.47746277 C-42.18530293 24.45801866 -42.18530293 24.45801866 -38.53880692 20.35645676 C-34.95589023 17.48135428 -31.02563584 15.53824148 -26.80459976 13.77357101 C-24.34649442 12.71986421 -22.07416394 11.39710807 -19.7734375 10.0390625 C-18.30881328 9.2316088 -16.84273151 8.42679162 -15.375 7.625 C-13.88238116 6.80547262 -12.39018128 5.98518164 -10.8984375 5.1640625 C-10.22264648 4.79313477 -9.54685547 4.42220703 -8.85058594 4.04003906 C-7.24426914 3.13728055 -5.66953266 2.17876814 -4.1015625 1.2109375 C-2 0 -2 0 0 0 Z " fill="#B32A30" transform="translate(46,25)"/>
</svg>
